<svg width="162" height="52" viewBox="0 0 162 52" fill="none" xmlns="http://www.w3.org/2000/svg">
<path d="M3.73761 8.50848C2.26178 6.76432 3.50151 4.09131 5.78629 4.09131H29.367C31.6683 4.09131 32.9686 6.73212 31.5655 8.55615L31.075 9.19375C30.4684 9.98243 30.571 11.1052 31.3106 11.7708V11.7708C32.6081 12.9386 31.782 15.0913 30.0364 15.0913H5.21408C3.46492 15.0913 2.6817 12.8972 4.03548 11.7896V11.7896C4.84037 11.131 4.94947 9.94068 4.27771 9.14679L3.73761 8.50848Z" fill="#D9D9D9"/>
<path d="M21.2521 11.0913C22.2531 11.0913 23.1 11.8314 23.2341 12.8235L25.4456 29.1889C25.4815 29.4545 25.4637 29.7245 25.3932 29.983L21.4019 44.6175C21.1646 45.4877 20.3743 46.0913 19.4724 46.0913L15.4415 46.0913C14.5807 46.0913 13.8164 45.5404 13.5441 44.7238L8.66444 30.0846C8.5566 29.7611 8.53327 29.4154 8.59666 29.0804L11.692 12.7195C11.8706 11.7751 12.6959 11.0913 13.6571 11.0913L21.2521 11.0913Z" fill="#D9D9D9"/>
<path d="M83.0454 29.1363H92.0454L91.3777 40.4886C91.1911 43.66 88.5649 46.1363 85.388 46.1363H84.0454L83.0454 29.1363Z" fill="#D9D9D9"/>
<path d="M105.305 34.9685L111.557 28.4945L120.189 36.8304C122.175 38.7486 122.231 41.914 120.312 43.9004L117.534 46.7777L105.305 34.9685Z" fill="#D9D9D9"/>
<path d="M83.0454 29.1362C83.0454 26.7724 83.511 24.4318 84.4156 22.2479C85.3202 20.0641 86.6461 18.0798 88.3175 16.4083C89.989 14.7369 91.9733 13.411 94.1571 12.5064C96.341 11.6018 98.6817 11.1362 101.045 11.1362L101.045 20.1362C99.8635 20.1362 98.6932 20.369 97.6013 20.8213C96.5094 21.2736 95.5172 21.9365 94.6815 22.7723C93.8458 23.608 93.1828 24.6002 92.7305 25.6921C92.2782 26.784 92.0454 27.9543 92.0454 29.1362H83.0454Z" fill="#D9D9D9"/>
<path d="M96.3867 11.7496C98.9636 11.0591 101.662 10.9501 104.286 11.4303C106.91 11.9106 109.395 12.9682 111.56 14.5267C113.725 16.0851 115.517 18.1053 116.806 20.4412C118.095 22.7771 118.848 25.3703 119.012 28.0331L110.028 28.5847C109.947 27.2533 109.57 25.9567 108.926 24.7887C108.281 23.6208 107.385 22.6107 106.303 21.8314C105.22 21.0522 103.978 20.5234 102.666 20.2833C101.354 20.0431 100.004 20.0977 98.716 20.4429L96.3867 11.7496Z" fill="#D9D9D9"/>
<path d="M75 28.0908C75 30.4546 74.5344 32.7953 73.6298 34.9791C72.7252 37.163 71.3994 39.1473 69.7279 40.8187C68.0565 42.4902 66.0722 43.8161 63.8883 44.7207C61.7044 45.6252 59.3638 46.0908 57 46.0908L57 37.0908C58.1819 37.0908 59.3522 36.858 60.4442 36.4057C61.5361 35.9534 62.5282 35.2905 63.364 34.4548C64.1997 33.6191 64.8626 32.6269 65.3149 31.535C65.7672 30.443 66 29.2727 66 28.0908H75Z" fill="#D9D9D9"/>
<path d="M69.7279 15.3629C71.3994 17.0344 72.7252 19.0187 73.6298 21.2025C74.5344 23.3864 75 25.727 75 28.0908C75 30.4546 74.5344 32.7953 73.6298 34.9791C72.7252 37.163 71.3994 39.1473 69.7279 40.8187L63.364 34.4548C64.1997 33.6191 64.8626 32.6269 65.3149 31.535C65.7672 30.443 66 29.2727 66 28.0908C66 26.9089 65.7672 25.7386 65.3149 24.6467C64.8626 23.5547 64.1997 22.5626 63.364 21.7269L69.7279 15.3629Z" fill="#D9D9D9"/>
<path d="M57 46.0908C54.6362 46.0908 52.2956 45.6252 50.1117 44.7207C47.9278 43.8161 45.9435 42.4902 44.2721 40.8187C42.6006 39.1473 41.2748 37.163 40.3702 34.9791C39.4656 32.7953 39 30.4546 39 28.0908L48 28.0908C48 29.2727 48.2328 30.443 48.6851 31.535C49.1374 32.6269 49.8003 33.6191 50.636 34.4548C51.4718 35.2905 52.4639 35.9534 53.5558 36.4057C54.6478 36.858 55.8181 37.0908 57 37.0908V46.0908Z" fill="#D9D9D9"/>
<path d="M39 28.0908C39 25.727 39.4656 23.3864 40.3702 21.2025C41.2748 19.0187 42.6006 17.0344 44.2721 15.3629C45.9435 13.6914 47.9278 12.3656 50.1117 11.461C52.2956 10.5564 54.6362 10.0908 57 10.0908L57 19.0908C55.8181 19.0908 54.6478 19.3236 53.5559 19.7759C52.4639 20.2282 51.4718 20.8911 50.636 21.7269C49.8003 22.5626 49.1374 23.5547 48.6851 24.6467C48.2328 25.7386 48 26.9089 48 28.0908H39Z" fill="#D9D9D9"/>
<path d="M133.866 0.503821C134.885 -0.0356137 136.148 0.39545 136.624 1.44522L142.497 14.3959L147.665 26.0179C148.092 26.9786 147.703 28.106 146.774 28.598L143.888 30.1262C142.959 30.6182 141.807 30.3068 141.253 29.4136L134.544 18.6077L127.133 6.47124C126.532 5.48747 126.885 4.20087 127.904 3.66144L133.866 0.503821Z" fill="#D9D9D9"/>
<path d="M159.357 17.1893C160.296 17.8472 160.491 19.1588 159.783 20.0615L149.655 32.9809L140.543 44.4494C139.885 45.2775 138.697 45.4502 137.83 44.8436L135.18 42.988C134.314 42.3814 134.07 41.2052 134.623 40.3038L142.283 27.8187L150.959 13.8829C151.566 12.9092 152.865 12.6438 153.804 13.3016L159.357 17.1893Z" fill="#D9D9D9"/>
</svg>
