<svg width="162" height="48" viewBox="0 0 162 48" fill="none" xmlns="http://www.w3.org/2000/svg">
<path d="M3.73761 4.5993C2.26178 2.85514 3.50151 0.182129 5.78629 0.182129H29.367C31.6683 0.182129 32.9686 2.82294 31.5655 4.64697L31.075 5.28457C30.4684 6.07325 30.571 7.19602 31.3106 7.86165V7.86165C32.6081 9.02942 31.782 11.1821 30.0364 11.1821H5.21408C3.46492 11.1821 2.6817 8.98801 4.03548 7.88038V7.88038C4.84037 7.22183 4.94947 6.0315 4.27771 5.23761L3.73761 4.5993Z" fill="#D9D9D9"/>
<path d="M20.889 7.18213C22.036 7.18213 22.948 8.14476 22.8861 9.29008L22 25.6821L21.1139 40.3031C21.0499 41.3588 20.1751 42.1821 19.1175 42.1821L15.8825 42.1821C14.8249 42.1821 13.9501 41.3588 13.8861 40.3031L13 25.6821L12.1139 9.29008C12.052 8.14477 12.964 7.18213 14.111 7.18213L20.889 7.18213Z" fill="#D9D9D9"/>
<path d="M83.0454 25.2271H92.0454L91.3777 36.5794C91.1911 39.7508 88.5649 42.2271 85.388 42.2271H84.0454L83.0454 25.2271Z" fill="#D9D9D9"/>
<path d="M110 25H119V37C119 39.7614 116.761 42 114 42H110V25Z" fill="#D9D9D9"/>
<path d="M83.0454 25.2271C83.0454 22.8633 83.511 20.5226 84.4156 18.3388C85.3202 16.1549 86.6461 14.1706 88.3175 12.4992C89.989 10.8277 91.9733 9.50184 94.1571 8.59725C96.341 7.69267 98.6817 7.22709 101.045 7.22709L101.045 16.2271C99.8635 16.2271 98.6932 16.4599 97.6013 16.9122C96.5094 17.3645 95.5172 18.0274 94.6815 18.8631C93.8458 19.6989 93.1828 20.691 92.7305 21.7829C92.2782 22.8749 92.0454 24.0452 92.0454 25.2271H83.0454Z" fill="#D9D9D9"/>
<path d="M101 7C103.364 7 105.704 7.46559 107.888 8.37017C110.072 9.27475 112.056 10.6006 113.728 12.2721C115.399 13.9435 116.725 15.9278 117.63 18.1117C118.534 20.2956 119 22.6362 119 25H110C110 23.8181 109.767 22.6478 109.315 21.5558C108.863 20.4639 108.2 19.4718 107.364 18.636C106.528 17.8003 105.536 17.1374 104.444 16.6851C103.352 16.2328 102.182 16 101 16V7Z" fill="#D9D9D9"/>
<path d="M75 24.1816C75 26.5454 74.5344 28.8861 73.6298 31.0699C72.7252 33.2538 71.3994 35.2381 69.7279 36.9096C68.0565 38.581 66.0722 39.9069 63.8883 40.8115C61.7044 41.7161 59.3638 42.1816 57 42.1816L57 33.1816C58.1819 33.1816 59.3522 32.9488 60.4442 32.4966C61.5361 32.0443 62.5282 31.3813 63.364 30.5456C64.1997 29.7099 64.8626 28.7177 65.3149 27.6258C65.7672 26.5339 66 25.3635 66 24.1816H75Z" fill="#D9D9D9"/>
<path d="M57 6C61.7739 6 66.3523 7.89643 69.7279 11.2721C73.1036 14.6477 75 19.2261 75 24H66C66 21.6131 65.0518 19.3239 63.364 17.636C61.6761 15.9482 59.3869 15 57 15V6Z" fill="#D9D9D9"/>
<path d="M57 42.1816C54.6362 42.1816 52.2956 41.7161 50.1117 40.8115C47.9278 39.9069 45.9435 38.581 44.2721 36.9096C42.6006 35.2381 41.2748 33.2538 40.3702 31.0699C39.4656 28.8861 39 26.5454 39 24.1816L48 24.1816C48 25.3635 48.2328 26.5339 48.6851 27.6258C49.1374 28.7177 49.8003 29.7099 50.636 30.5456C51.4718 31.3813 52.4639 32.0443 53.5558 32.4966C54.6478 32.9488 55.8181 33.1816 57 33.1816V42.1816Z" fill="#D9D9D9"/>
<path d="M39 24.1817C39 21.8179 39.4656 19.4772 40.3702 17.2934C41.2748 15.1095 42.6006 13.1252 44.2721 11.4538C45.9435 9.7823 47.9278 8.45643 50.1117 7.55184C52.2956 6.64726 54.6362 6.18168 57 6.18168L57 15.1817C55.8181 15.1817 54.6478 15.4145 53.5559 15.8668C52.4639 16.3191 51.4718 16.982 50.636 17.8177C49.8003 18.6534 49.1374 19.6456 48.6851 20.7375C48.2328 21.8295 48 22.9998 48 24.1817H39Z" fill="#D9D9D9"/>
<path d="M134.933 1.17672C135.952 0.637286 137.214 1.06835 137.69 2.11812L143.564 15.0688L148.731 26.6908C149.159 27.6515 148.769 28.7789 147.84 29.2709L144.954 30.7991C144.025 31.2911 142.874 30.9797 142.319 30.0865L135.61 19.2806L128.199 7.14414C127.598 6.16037 127.951 4.87377 128.97 4.33433L134.933 1.17672Z" fill="#D9D9D9"/>
<path d="M159.447 13.2801C160.387 13.938 160.582 15.2497 159.874 16.1523L149.746 29.0717L140.634 40.5403C139.976 41.3683 138.787 41.541 137.921 40.9344L135.271 39.0788C134.405 38.4722 134.161 37.296 134.714 36.3946L142.374 23.9095L151.05 9.97372C151.656 9.00002 152.956 8.73458 153.895 9.39246L159.447 13.2801Z" fill="#D9D9D9"/>
</svg>
